<svg xmlns="http://www.w3.org/2000/svg" xmlns:xlink="http://www.w3.org/1999/xlink" width="2000" zoomAndPan="magnify" viewBox="0 0 1500 1499.999933" height="2000" preserveAspectRatio="xMidYMid meet" version="1.0"><defs><g/><clipPath id="547837df13"><rect x="0" width="1031" y="0" height="1064"/></clipPath></defs><g transform="matrix(1, 0, 0, 1, 235, 218)"><g clip-path="url(#547837df13)"><g fill="#ff66c4" fill-opacity="1"><g transform="translate(3.377635, 393.650813)"><g><path d="M 140.171875 4.1875 C 116.546875 4.1875 95.804688 -0.585938 77.953125 -10.140625 C 60.097656 -19.703125 46.222656 -33.539062 36.328125 -51.65625 C 26.441406 -69.78125 21.5 -91.648438 21.5 -117.265625 C 21.5 -141.429688 25.28125 -164.53125 32.84375 -186.5625 C 40.414062 -208.59375 51.335938 -228.203125 65.609375 -245.390625 C 79.878906 -262.585938 97.035156 -276.128906 117.078125 -286.015625 C 137.117188 -295.898438 159.550781 -300.84375 184.375 -300.84375 C 201.5 -300.84375 217.128906 -298.453125 231.265625 -293.671875 C 245.398438 -288.898438 257.578125 -281.96875 267.796875 -272.875 C 278.015625 -263.78125 285.742188 -252.660156 290.984375 -239.515625 C 296.234375 -226.378906 298.660156 -211.382812 298.265625 -194.53125 L 236.734375 -194.53125 C 236.597656 -202.757812 235.269531 -210.09375 232.75 -216.53125 C 230.226562 -222.96875 226.609375 -228.441406 221.890625 -232.953125 C 217.179688 -237.460938 211.578125 -240.910156 205.078125 -243.296875 C 198.578125 -245.691406 191.210938 -246.890625 182.984375 -246.890625 C 166.648438 -246.890625 152.242188 -243.101562 139.765625 -235.53125 C 127.296875 -227.96875 116.8125 -217.914062 108.3125 -205.375 C 99.8125 -192.832031 93.367188 -178.925781 88.984375 -163.65625 C 84.609375 -148.394531 82.421875 -133.132812 82.421875 -117.875 C 82.421875 -103 84.875 -90.519531 89.78125 -80.4375 C 94.695312 -70.351562 101.769531 -62.722656 111 -57.546875 C 120.226562 -52.367188 131.144531 -49.78125 143.75 -49.78125 C 152.644531 -49.78125 161.140625 -50.972656 169.234375 -53.359375 C 177.335938 -55.742188 184.804688 -59.191406 191.640625 -63.703125 C 198.472656 -68.222656 204.441406 -73.703125 209.546875 -80.140625 C 214.660156 -86.578125 218.679688 -93.910156 221.609375 -102.140625 L 283.125 -102.140625 C 278.875 -87.671875 272.4375 -74.0625 263.8125 -61.3125 C 255.1875 -48.570312 244.703125 -37.257812 232.359375 -27.375 C 220.015625 -17.488281 206.078125 -9.753906 190.546875 -4.171875 C 175.015625 1.398438 158.222656 4.1875 140.171875 4.1875 Z M 140.171875 4.1875 "/></g></g><g transform="translate(304.224298, 393.650813)"><g><path d="M 107.921875 4.375 C 88.003906 4.375 71.007812 0.558594 56.9375 -7.0625 C 42.875 -14.695312 32.125 -25.414062 24.6875 -39.21875 C 17.257812 -53.03125 13.546875 -69.226562 13.546875 -87.8125 C 13.546875 -105.726562 16.429688 -122.78125 22.203125 -138.96875 C 27.972656 -155.164062 36.265625 -169.601562 47.078125 -182.28125 C 57.898438 -194.957031 71.078125 -204.910156 86.609375 -212.140625 C 102.140625 -219.378906 119.660156 -223 139.171875 -223 C 158.953125 -223 175.875 -219.210938 189.9375 -211.640625 C 204.007812 -204.078125 214.757812 -193.359375 222.1875 -179.484375 C 229.625 -165.617188 233.34375 -149.328125 233.34375 -130.609375 C 233.34375 -112.828125 230.519531 -95.835938 224.875 -79.640625 C 219.238281 -63.441406 210.976562 -49.035156 200.09375 -36.421875 C 189.207031 -23.816406 176.03125 -13.863281 160.5625 -6.5625 C 145.101562 0.726562 127.554688 4.375 107.921875 4.375 Z M 110.296875 -42.609375 C 121.179688 -42.609375 130.601562 -45.460938 138.5625 -51.171875 C 146.53125 -56.878906 153.101562 -64.28125 158.28125 -73.375 C 163.457031 -82.46875 167.335938 -92.1875 169.921875 -102.53125 C 172.515625 -112.882812 173.8125 -122.707031 173.8125 -132 C 173.8125 -141.03125 172.382812 -148.796875 169.53125 -155.296875 C 166.675781 -161.804688 162.492188 -166.882812 156.984375 -170.53125 C 151.484375 -174.1875 144.679688 -176.015625 136.578125 -176.015625 C 125.828125 -176.015625 116.4375 -173.191406 108.40625 -167.546875 C 100.375 -161.898438 93.769531 -154.5625 88.59375 -145.53125 C 83.425781 -136.507812 79.546875 -126.820312 76.953125 -116.46875 C 74.367188 -106.125 73.078125 -96.238281 73.078125 -86.8125 C 73.078125 -73.40625 76.257812 -62.6875 82.625 -54.65625 C 89 -46.625 98.222656 -42.609375 110.296875 -42.609375 Z M 110.296875 -42.609375 "/></g></g><g transform="translate(551.312787, 393.650813)"><g><path d="M 96.5625 4.578125 C 78.644531 4.578125 63.082031 1.957031 49.875 -3.28125 C 36.664062 -8.53125 26.34375 -15.960938 18.90625 -25.578125 C 11.476562 -35.203125 7.429688 -46.71875 6.765625 -60.125 C 6.765625 -60.65625 6.765625 -61.21875 6.765625 -61.8125 C 6.765625 -62.414062 6.765625 -62.984375 6.765625 -63.515625 L 62.921875 -67.890625 C 63.710938 -57.804688 66.960938 -50.441406 72.671875 -45.796875 C 78.378906 -41.148438 87.140625 -38.828125 98.953125 -38.828125 C 106.253906 -38.828125 113.125 -39.851562 119.5625 -41.90625 C 126 -43.96875 131.304688 -46.921875 135.484375 -50.765625 C 139.671875 -54.617188 141.960938 -59.203125 142.359375 -64.515625 C 142.753906 -69.421875 141.125 -73.5 137.46875 -76.75 C 133.820312 -80 127.6875 -82.554688 119.0625 -84.421875 L 82.234375 -92.1875 C 63.253906 -96.164062 49.117188 -103.195312 39.828125 -113.28125 C 30.535156 -123.375 26.351562 -135.988281 27.28125 -151.125 C 27.9375 -166.25 32.910156 -179.1875 42.203125 -189.9375 C 51.492188 -200.695312 63.640625 -208.894531 78.640625 -214.53125 C 93.640625 -220.175781 110.035156 -223 127.828125 -223 C 153.835938 -223 174.078125 -217.722656 188.546875 -207.171875 C 203.015625 -196.617188 210.976562 -182.644531 212.4375 -165.25 C 212.570312 -164.320312 212.671875 -163.394531 212.734375 -162.46875 C 212.804688 -161.539062 212.84375 -160.546875 212.84375 -159.484375 L 159.484375 -155.296875 C 158.953125 -163.265625 156.128906 -169.4375 151.015625 -173.8125 C 145.910156 -178.195312 138.179688 -180.390625 127.828125 -180.390625 C 121.191406 -180.390625 114.816406 -179.359375 108.703125 -177.296875 C 102.597656 -175.242188 97.519531 -172.328125 93.46875 -168.546875 C 89.425781 -164.765625 87.207031 -160.148438 86.8125 -154.703125 C 86.414062 -149.796875 87.90625 -145.75 91.28125 -142.5625 C 94.664062 -139.375 100.738281 -136.785156 109.5 -134.796875 L 148.140625 -127.03125 C 167.515625 -123.050781 181.847656 -116.378906 191.140625 -107.015625 C 200.429688 -97.660156 204.546875 -85.613281 203.484375 -70.875 C 202.953125 -59.195312 199.734375 -48.710938 193.828125 -39.421875 C 187.921875 -30.128906 180.019531 -22.195312 170.125 -15.625 C 160.238281 -9.0625 148.988281 -4.050781 136.375 -0.59375 C 123.769531 2.851562 110.5 4.578125 96.5625 4.578125 Z M 96.5625 4.578125 "/></g></g><g transform="translate(775.902485, 393.650813)"><g><path d="M 81.828125 3.1875 C 66.566406 3.1875 53.789062 -0.128906 43.5 -6.765625 C 33.21875 -13.398438 25.953125 -22.988281 21.703125 -35.53125 C 17.453125 -48.082031 16.789062 -63.050781 19.71875 -80.4375 L 42.609375 -219.8125 L 102.140625 -219.8125 L 80.84375 -90.984375 C 78.582031 -77.179688 80.335938 -66.394531 86.109375 -58.625 C 91.890625 -50.863281 101.015625 -46.984375 113.484375 -46.984375 C 121.847656 -46.984375 129.515625 -48.742188 136.484375 -52.265625 C 143.453125 -55.785156 149.359375 -61.03125 154.203125 -68 C 159.046875 -74.96875 162.332031 -83.492188 164.0625 -93.578125 L 184.96875 -219.8125 L 244.296875 -219.8125 L 208.0625 0 L 151.3125 0 L 159.6875 -55.34375 L 164.65625 -55.34375 C 155.632812 -36.757812 144.253906 -22.359375 130.515625 -12.140625 C 116.773438 -1.921875 100.546875 3.1875 81.828125 3.1875 Z M 81.828125 3.1875 "/></g></g></g><g fill="#ff66c4" fill-opacity="1"><g transform="translate(0.590174, 963.430555)"><g><path d="M 7.5625 0 L 56.75 -296.671875 L 173.015625 -296.671875 C 195.585938 -296.671875 214.140625 -292.6875 228.671875 -284.71875 C 243.203125 -276.75 253.488281 -265.5 259.53125 -250.96875 C 265.570312 -236.4375 267 -219.414062 263.8125 -199.90625 C 260.488281 -180.382812 253.351562 -163.554688 242.40625 -149.421875 C 231.457031 -135.285156 217.253906 -124.398438 199.796875 -116.765625 C 182.347656 -109.140625 162.207031 -105.328125 139.375 -105.328125 L 61.125 -105.328125 L 69.28125 -154.5 L 139.96875 -154.5 C 152.050781 -154.5 162.40625 -156.257812 171.03125 -159.78125 C 179.65625 -163.300781 186.519531 -168.476562 191.625 -175.3125 C 196.738281 -182.144531 200.09375 -190.40625 201.6875 -200.09375 C 204.207031 -215.09375 201.519531 -226.539062 193.625 -234.4375 C 185.726562 -242.34375 172.890625 -246.296875 155.109375 -246.296875 L 109.3125 -246.296875 L 68.484375 0 Z M 173.8125 0 L 125.03125 -134.796875 L 189.953125 -134.796875 L 240.3125 0 Z M 173.8125 0 "/></g></g></g><g fill="#ff66c4" fill-opacity="1"><g transform="translate(261.815072, 963.430555)"><g><path d="M 108.3125 4.78125 C 88.53125 4.78125 71.4375 1.164062 57.03125 -6.0625 C 42.632812 -13.300781 31.65625 -23.851562 24.09375 -37.71875 C 16.53125 -51.59375 12.945312 -68.421875 13.34375 -88.203125 C 13.738281 -106.921875 17.085938 -124.441406 23.390625 -140.765625 C 29.703125 -157.085938 38.53125 -171.488281 49.875 -183.96875 C 61.226562 -196.445312 74.601562 -206.203125 90 -213.234375 C 105.394531 -220.273438 122.25 -223.796875 140.5625 -223.796875 C 156.363281 -223.796875 170.46875 -221.238281 182.875 -216.125 C 195.289062 -211.019531 205.082031 -203.65625 212.25 -194.03125 C 219.414062 -184.40625 223 -172.753906 223 -159.078125 C 223 -145.015625 218.945312 -133.5 210.84375 -124.53125 C 202.75 -115.570312 190.800781 -108.632812 175 -103.71875 C 159.207031 -98.8125 139.796875 -95.429688 116.765625 -93.578125 C 93.742188 -91.722656 67.300781 -90.796875 37.4375 -90.796875 L 43.609375 -127.421875 C 68.953125 -127.421875 89.722656 -127.882812 105.921875 -128.8125 C 122.117188 -129.75 134.695312 -131.3125 143.65625 -133.5 C 152.613281 -135.6875 158.847656 -138.671875 162.359375 -142.453125 C 165.878906 -146.242188 167.640625 -150.925781 167.640625 -156.5 C 167.640625 -163.53125 164.71875 -169.035156 158.875 -173.015625 C 153.039062 -177.003906 144.945312 -179 134.59375 -179 C 121.71875 -179 111.164062 -175.878906 102.9375 -169.640625 C 94.707031 -163.398438 88.300781 -155.5 83.71875 -145.9375 C 79.144531 -136.382812 75.894531 -126.332031 73.96875 -115.78125 C 72.039062 -105.226562 71.007812 -95.570312 70.875 -86.8125 C 70.613281 -78.050781 71.675781 -70.117188 74.0625 -63.015625 C 76.457031 -55.910156 80.738281 -50.300781 86.90625 -46.1875 C 93.082031 -42.070312 101.675781 -40.015625 112.6875 -40.015625 C 124.5 -40.015625 134.6875 -42.4375 143.25 -47.28125 C 151.8125 -52.125 157.882812 -58.726562 161.46875 -67.09375 L 215.4375 -61.515625 C 208.132812 -41.609375 195.09375 -25.582031 176.3125 -13.4375 C 157.53125 -1.289062 134.863281 4.78125 108.3125 4.78125 Z M 108.3125 4.78125 "/></g></g><g transform="translate(499.545656, 963.430555)"><g><path d="M 86.21875 -124.234375 L 65.703125 0 L 6.171875 0 L 42.609375 -219.8125 L 99.15625 -219.8125 L 91.1875 -164.453125 L 85.609375 -166.453125 C 94.640625 -184.898438 105.691406 -198.9375 118.765625 -208.5625 C 131.835938 -218.1875 147.46875 -223 165.65625 -223 C 181.445312 -223 194.71875 -219.515625 205.46875 -212.546875 C 216.226562 -205.578125 223.863281 -195.6875 228.375 -182.875 C 232.882812 -170.0625 233.679688 -154.894531 230.765625 -137.375 L 207.859375 0 L 148.328125 0 L 170.234375 -130.8125 C 172.492188 -144.75 170.703125 -155.265625 164.859375 -162.359375 C 159.015625 -169.460938 150.1875 -173.015625 138.375 -173.015625 C 129.613281 -173.015625 121.582031 -171.054688 114.28125 -167.140625 C 106.976562 -163.234375 100.90625 -157.628906 96.0625 -150.328125 C 91.21875 -143.023438 87.9375 -134.328125 86.21875 -124.234375 Z M 86.21875 -124.234375 "/></g></g><g transform="translate(750.018919, 963.430555)"><g><path d="M 155.5 -219.8125 L 148.140625 -174.21875 L 14.734375 -174.21875 L 22.09375 -219.8125 Z M 63.109375 -273.765625 L 122.640625 -273.765625 L 88 -65.109375 C 86.9375 -57.941406 87.695312 -52.765625 90.28125 -49.578125 C 92.875 -46.390625 97.820312 -44.796875 105.125 -44.796875 C 107.644531 -44.796875 111.03125 -45.023438 115.28125 -45.484375 C 119.53125 -45.953125 122.78125 -46.390625 125.03125 -46.796875 L 124.234375 -1.59375 C 118.128906 -0.132812 111.789062 0.890625 105.21875 1.484375 C 98.65625 2.085938 92.253906 2.390625 86.015625 2.390625 C 63.453125 2.390625 47.257812 -2.816406 37.4375 -13.234375 C 27.613281 -23.660156 24.289062 -38.894531 27.46875 -58.9375 Z M 63.109375 -273.765625 "/></g></g><g transform="translate(899.944488, 963.430555)"><g><path d="M 34.25 -92.578125 L 63.515625 -296.671875 L 127.421875 -296.671875 L 89 -92.578125 Z M 48.375 3.78125 C 38.03125 3.78125 29.800781 0.0976562 23.6875 -7.265625 C 17.582031 -14.628906 15.394531 -23.625 17.125 -34.25 C 18.582031 -43.007812 22.757812 -50.207031 29.65625 -55.84375 C 36.5625 -61.488281 44.394531 -64.3125 53.15625 -64.3125 C 63.644531 -64.3125 71.910156 -60.660156 77.953125 -53.359375 C 83.992188 -46.054688 86.148438 -37.164062 84.421875 -26.6875 C 83.085938 -18.050781 78.96875 -10.8125 72.0625 -4.96875 C 65.164062 0.863281 57.269531 3.78125 48.375 3.78125 Z M 48.375 3.78125 "/></g></g></g></g></g></svg>